<?xml version="1.0" encoding="UTF-8" standalone="no"?>
<!-- Created with Inkscape (http://www.inkscape.org/) -->

<svg
   width="13.098479mm"
   height="12.999949mm"
   viewBox="0 0 13.098479 12.999949"
   version="1.1"
   id="svg1"
   xml:space="preserve"
   xmlns="http://www.w3.org/2000/svg"
   xmlns:svg="http://www.w3.org/2000/svg"><defs
     id="defs1" /><g
     id="layer1"
     transform="translate(-47.901561,-262.99998)"><path
       d="m 54.134441,263.62883 a 4.3583296,6.0889213 22.232194 0 1 3.40163,5.87243 4.3583296,6.0889213 22.232194 0 1 -5.581479,5.87238 h 2.695764 a 4.3583296,6.0889213 22.232194 0 0 5.597366,-5.87238 4.3583296,6.0889213 22.232194 0 0 -3.44087,-5.87243 z"
       style="fill:#00a0a0;fill-opacity:1;stroke:#00a0a0;stroke-width:1.24719;stroke-dasharray:none;stroke-opacity:1"
       id="path6-5-6-4-1-0-0-6-16-7" /><path
       id="path5-5-2-4-7-8-8-5-8-3"
       style="fill:#0f0f0f;fill-opacity:1;stroke:#5df9f9;stroke-width:1.24719;stroke-dasharray:none;stroke-opacity:1"
       d="m 54.097935,263.62356 a 4.2160324,6.0772181 20.724665 0 0 -5.439186,5.8764 4.2160324,6.0772181 20.724665 0 0 3.281229,5.87637 4.2160324,6.0772181 20.724665 0 0 5.438721,-5.87637 4.2160324,6.0772181 20.724665 0 0 -3.280764,-5.8764 z" /><text
       xml:space="preserve"
       style="font-size:14.1111px;text-align:start;letter-spacing:1.05833px;writing-mode:lr-tb;direction:ltr;text-anchor:start;white-space:pre;inline-size:0;display:inline;fill:#f95ec8;fill-opacity:1;stroke:none;stroke-width:0;stroke-dasharray:none;stroke-opacity:1"
       x="150.50749"
       y="118.50507"
       id="text2-6-3-4-0-4-7-8-6-61-5-2-3-8-3-1-9-3-1-9-8-6-4-0-9-4-02-4-8-4-4-9-4-30-9-3-3-5-7"
       transform="matrix(0.73489937,0,-0.22941061,0.67685944,-33.364988,191.21472)"><tspan
         id="tspan2-1-1-0-3-7-1-8-0-4-5-3-1-4-5-2-6-8-82-2-7-1-6-5-8-1-8-9-8-6-9-1-2-04-3-4-2-7-2"
         style="font-style:normal;font-variant:normal;font-weight:normal;font-stretch:normal;font-size:14.1111px;font-family:'Jersey 15';-inkscape-font-specification:'Jersey 15, ';letter-spacing:1.05833px;fill:#f95ec8;fill-opacity:1;stroke:none;stroke-width:0;stroke-dasharray:none;stroke-opacity:1"
         x="150.50749"
         y="118.50507">x</tspan></text></g></svg>
